<svg width="14" height="14" viewBox="0 0 14 14" fill="none" xmlns="http://www.w3.org/2000/svg">
<path d="M1.75 6.41669H2.35986M2.35986 6.41669H11.6401M2.35986 6.41669C2.36636 6.38667 2.37403 6.3569 2.38289 6.3275C2.40404 6.25734 2.43391 6.18986 2.49398 6.05471L3.39596 4.02525C3.5743 3.624 3.66361 3.42325 3.80456 3.27614C3.92914 3.14611 4.08195 3.04677 4.25138 2.98574C4.44306 2.91669 4.66279 2.91669 5.10189 2.91669H8.89792C9.33701 2.91669 9.55695 2.91669 9.74863 2.98574C9.91806 3.04677 10.0706 3.14611 10.1952 3.27614C10.3361 3.42316 10.4252 3.62373 10.6033 4.02444L11.5089 6.0621C11.5668 6.19234 11.5963 6.25862 11.6171 6.3275C11.6259 6.3569 11.6336 6.38667 11.6401 6.41669M2.35986 6.41669C2.35259 6.45031 2.34681 6.48425 2.3425 6.51837C2.33333 6.59108 2.33333 6.665 2.33333 6.81289V9.91669M11.6401 6.41669H12.25M11.6401 6.41669C11.6474 6.45031 11.6532 6.48425 11.6576 6.51837C11.6667 6.59064 11.6667 6.66413 11.6667 6.81023V9.91675M11.6667 9.91675L9.33333 9.91674M11.6667 9.91675V10.5C11.6667 11.1443 11.1443 11.6667 10.5 11.6667C9.85567 11.6667 9.33333 11.1444 9.33333 10.5V9.91674M2.33333 9.91669H4.66667L9.33333 9.91674M4.66667 9.91669V10.5C4.66667 11.1444 4.14433 11.6667 3.5 11.6667C2.85567 11.6667 2.33333 11.1444 2.33333 10.5V9.91669" stroke="#111111" stroke-width="0.8" stroke-linecap="round" stroke-linejoin="round"/>
</svg>
