<svg width="16" height="16" viewBox="0 0 16 16" fill="none" xmlns="http://www.w3.org/2000/svg">
<path d="M2.66667 4.00004L6.73842 7.07488L6.73978 7.07601C7.1919 7.40756 7.41809 7.57344 7.66584 7.63752C7.88482 7.69416 8.115 7.69416 8.33398 7.63752C8.58195 7.57338 8.8088 7.40702 9.26172 7.07488C9.26172 7.07488 11.8734 5.07067 13.3333 4.00004M2 10.5335V5.46684C2 4.7201 2 4.34645 2.14532 4.06124C2.27316 3.81036 2.47698 3.60653 2.72786 3.4787C3.01308 3.33337 3.38673 3.33337 4.13346 3.33337H11.8668C12.6135 3.33337 12.9864 3.33337 13.2716 3.4787C13.5225 3.60653 13.727 3.81036 13.8548 4.06124C14 4.34618 14 4.71937 14 5.46465V10.5358C14 11.281 14 11.6537 13.8548 11.9386C13.727 12.1895 13.5225 12.3937 13.2716 12.5215C12.9867 12.6667 12.614 12.6667 11.8687 12.6667H4.13127C3.386 12.6667 3.0128 12.6667 2.72786 12.5215C2.47698 12.3937 2.27316 12.1895 2.14532 11.9386C2 11.6534 2 11.2802 2 10.5335Z" stroke="#111111" stroke-width="1.5" stroke-linecap="round" stroke-linejoin="round"/>
</svg>
